<mxfile host="app.diagrams.net" modified="2022-08-04T11:21:53.725Z" agent="5.0 (Macintosh; Intel Mac OS X 10_15_7) AppleWebKit/605.1.15 (KHTML, like Gecko) Version/15.5 Safari/605.1.15" etag="op_Oxf9hRloAhS5GGKfd" version="20.2.2" type="github">
  <diagram id="l12WZxI9vdgt3lipovmv" name="Page-1">
    <mxGraphModel dx="702" dy="475" grid="1" gridSize="10" guides="1" tooltips="1" connect="1" arrows="1" fold="1" page="1" pageScale="1" pageWidth="827" pageHeight="1169" math="0" shadow="0">
      <root>
        <mxCell id="0" />
        <mxCell id="1" parent="0" />
        <mxCell id="IOIMIJRpnjaaPmZjS5Qh-2" style="edgeStyle=orthogonalEdgeStyle;rounded=0;orthogonalLoop=1;jettySize=auto;html=1;" edge="1" parent="1" source="IOIMIJRpnjaaPmZjS5Qh-1">
          <mxGeometry relative="1" as="geometry">
            <mxPoint x="520" y="250" as="targetPoint" />
            <Array as="points">
              <mxPoint x="520" y="210" />
              <mxPoint x="520" y="240" />
            </Array>
          </mxGeometry>
        </mxCell>
        <mxCell id="IOIMIJRpnjaaPmZjS5Qh-1" value="inner peace" style="rhombus;whiteSpace=wrap;html=1;" vertex="1" parent="1">
          <mxGeometry x="360" y="170" width="80" height="80" as="geometry" />
        </mxCell>
        <mxCell id="IOIMIJRpnjaaPmZjS5Qh-3" style="edgeStyle=orthogonalEdgeStyle;rounded=0;orthogonalLoop=1;jettySize=auto;html=1;" edge="1" parent="1">
          <mxGeometry relative="1" as="geometry">
            <mxPoint x="280" y="250" as="targetPoint" />
            <mxPoint x="360" y="210" as="sourcePoint" />
            <Array as="points">
              <mxPoint x="280" y="210" />
            </Array>
          </mxGeometry>
        </mxCell>
        <mxCell id="IOIMIJRpnjaaPmZjS5Qh-20" style="edgeStyle=orthogonalEdgeStyle;rounded=0;orthogonalLoop=1;jettySize=auto;html=1;entryX=0.5;entryY=0;entryDx=0;entryDy=0;fontSize=7;" edge="1" parent="1" source="IOIMIJRpnjaaPmZjS5Qh-4" target="IOIMIJRpnjaaPmZjS5Qh-6">
          <mxGeometry relative="1" as="geometry" />
        </mxCell>
        <mxCell id="IOIMIJRpnjaaPmZjS5Qh-4" value="db structure" style="ellipse;whiteSpace=wrap;html=1;" vertex="1" parent="1">
          <mxGeometry x="230" y="250" width="100" height="30" as="geometry" />
        </mxCell>
        <mxCell id="IOIMIJRpnjaaPmZjS5Qh-8" style="edgeStyle=orthogonalEdgeStyle;rounded=0;orthogonalLoop=1;jettySize=auto;html=1;" edge="1" parent="1" source="IOIMIJRpnjaaPmZjS5Qh-5" target="IOIMIJRpnjaaPmZjS5Qh-7">
          <mxGeometry relative="1" as="geometry" />
        </mxCell>
        <mxCell id="IOIMIJRpnjaaPmZjS5Qh-5" value="user flow" style="ellipse;whiteSpace=wrap;html=1;" vertex="1" parent="1">
          <mxGeometry x="470" y="250" width="100" height="30" as="geometry" />
        </mxCell>
        <mxCell id="IOIMIJRpnjaaPmZjS5Qh-6" value="" style="rounded=0;whiteSpace=wrap;html=1;" vertex="1" parent="1">
          <mxGeometry x="160" y="310" width="240" height="220" as="geometry" />
        </mxCell>
        <mxCell id="IOIMIJRpnjaaPmZjS5Qh-7" value="" style="rounded=0;whiteSpace=wrap;html=1;" vertex="1" parent="1">
          <mxGeometry x="400" y="310" width="240" height="220" as="geometry" />
        </mxCell>
        <mxCell id="IOIMIJRpnjaaPmZjS5Qh-11" value="" style="rounded=1;whiteSpace=wrap;html=1;" vertex="1" parent="1">
          <mxGeometry x="180" y="330" width="50" height="50" as="geometry" />
        </mxCell>
        <mxCell id="IOIMIJRpnjaaPmZjS5Qh-12" value="" style="line;strokeWidth=1;html=1;" vertex="1" parent="1">
          <mxGeometry x="180" y="340" width="50" height="10" as="geometry" />
        </mxCell>
        <mxCell id="IOIMIJRpnjaaPmZjS5Qh-13" value="&lt;font style=&quot;font-size: 7px;&quot;&gt;users&lt;/font&gt;" style="text;html=1;resizable=0;autosize=1;align=center;verticalAlign=middle;points=[];fillColor=none;strokeColor=none;rounded=0;strokeWidth=0;" vertex="1" parent="1">
          <mxGeometry x="185" y="320" width="40" height="30" as="geometry" />
        </mxCell>
        <mxCell id="IOIMIJRpnjaaPmZjS5Qh-16" value="" style="rounded=1;whiteSpace=wrap;html=1;" vertex="1" parent="1">
          <mxGeometry x="260" y="330" width="50" height="70" as="geometry" />
        </mxCell>
        <mxCell id="IOIMIJRpnjaaPmZjS5Qh-17" value="" style="line;strokeWidth=1;html=1;" vertex="1" parent="1">
          <mxGeometry x="260" y="340" width="50" height="10" as="geometry" />
        </mxCell>
        <mxCell id="IOIMIJRpnjaaPmZjS5Qh-18" value="&lt;span style=&quot;font-size: 7px;&quot;&gt;goals&lt;/span&gt;" style="text;html=1;resizable=0;autosize=1;align=center;verticalAlign=middle;points=[];fillColor=none;strokeColor=none;rounded=0;strokeWidth=0;" vertex="1" parent="1">
          <mxGeometry x="265" y="320" width="40" height="30" as="geometry" />
        </mxCell>
        <mxCell id="IOIMIJRpnjaaPmZjS5Qh-19" value="email&lt;br&gt;password&lt;br&gt;id – PK" style="text;html=1;resizable=0;autosize=1;align=center;verticalAlign=middle;points=[];fillColor=none;strokeColor=none;rounded=0;fontSize=7;" vertex="1" parent="1">
          <mxGeometry x="180" y="340" width="50" height="40" as="geometry" />
        </mxCell>
        <mxCell id="IOIMIJRpnjaaPmZjS5Qh-21" value="title&lt;br&gt;description&lt;br&gt;deadline&lt;br&gt;amount&lt;br&gt;interest_rate&lt;br&gt;id – PK" style="text;html=1;resizable=0;autosize=1;align=center;verticalAlign=middle;points=[];fillColor=none;strokeColor=none;rounded=0;fontSize=7;" vertex="1" parent="1">
          <mxGeometry x="255" y="340" width="60" height="60" as="geometry" />
        </mxCell>
        <mxCell id="IOIMIJRpnjaaPmZjS5Qh-26" style="edgeStyle=orthogonalEdgeStyle;rounded=0;orthogonalLoop=1;jettySize=auto;html=1;entryX=0.5;entryY=0;entryDx=0;entryDy=0;fontSize=9;" edge="1" parent="1" source="IOIMIJRpnjaaPmZjS5Qh-22" target="IOIMIJRpnjaaPmZjS5Qh-27">
          <mxGeometry relative="1" as="geometry" />
        </mxCell>
        <mxCell id="IOIMIJRpnjaaPmZjS5Qh-22" value="" style="ellipse;whiteSpace=wrap;html=1;fontSize=5;strokeWidth=1;" vertex="1" parent="1">
          <mxGeometry x="500" y="330" width="40" height="20" as="geometry" />
        </mxCell>
        <mxCell id="IOIMIJRpnjaaPmZjS5Qh-23" value="&lt;font style=&quot;font-size: 9px;&quot;&gt;login&lt;/font&gt;" style="text;html=1;resizable=0;autosize=1;align=center;verticalAlign=middle;points=[];fillColor=none;strokeColor=none;rounded=0;fontSize=5;" vertex="1" parent="1">
          <mxGeometry x="500" y="330" width="40" height="20" as="geometry" />
        </mxCell>
        <mxCell id="IOIMIJRpnjaaPmZjS5Qh-27" value="&lt;font style=&quot;font-size: 9px;&quot;&gt;controller Goal:&lt;br&gt;before action: :check_who&lt;br&gt;&lt;br&gt;private&lt;br&gt;&lt;br&gt;def check_who&lt;br&gt;@current_role = перевірка чи є в людини ціль, або чи є контрібєшен, або права адміна&lt;/font&gt;" style="rounded=1;whiteSpace=wrap;html=1;fontSize=9;strokeWidth=1;" vertex="1" parent="1">
          <mxGeometry x="460" y="370" width="120" height="130" as="geometry" />
        </mxCell>
      </root>
    </mxGraphModel>
  </diagram>
</mxfile>
